# xmcd
#
# Track frame offsets: 
#        150
#        40039
#        67474
#        99647
#        131503
#        166160
#        198491
#        234580
#
# Disc length: 3509 seconds
#
# Revision: 1
# Processed by: cddbd v1.5.2PL0 Copyright (c) Steve Scherf et al.
# Submitted via: ExactAudioCopy v1.0b1
#
DISCID=6e0db308
DTITLE=Eric Alexander - The Second Milestone
DYEAR=2001
DGENRE=Jazz
TTITLE0=Matchmaker, Matchmaker
TTITLE1=The Second Milestone
TTITLE2=Moment to Moment
TTITLE3=The Man From Hyde Park
TTITLE4=Estate
TTITLE5=Luna Naranja
TTITLE6=John Neely Beautiful People
TTITLE7=The Cliffs of Asturias
EXTD=YEAR: 2001
EXTT0=
EXTT1=
EXTT2=
EXTT3=
EXTT4=
EXTT5=
EXTT6=
EXTT7=
PLAYORDER=
